<svg width="22" height="20" viewBox="0 0 22 20" fill="none" xmlns="http://www.w3.org/2000/svg">
<path d="M11.0169 0C5.20995 0 0.507568 4.48 0.507568 10C0.507568 15.52 5.20995 20 11.0169 20C16.8344 20 21.5473 15.52 21.5473 10C21.5473 4.48 16.8344 0 11.0169 0ZM18.3072 6H15.2038C14.8672 4.75 14.3833 3.55 13.7521 2.44C15.6878 3.07 17.2973 4.35 18.3072 6ZM11.0274 2.04C11.9006 3.24 12.5844 4.57 13.0367 6H9.01815C9.47051 4.57 10.1543 3.24 11.0274 2.04ZM2.88506 12C2.71674 11.36 2.61154 10.69 2.61154 10C2.61154 9.31 2.71674 8.64 2.88506 8H6.44078C6.35662 8.66 6.2935 9.32 6.2935 10C6.2935 10.68 6.35662 11.34 6.44078 12H2.88506ZM3.74769 14H6.85106C7.18769 15.25 7.67161 16.45 8.3028 17.56C6.36714 16.93 4.7576 15.66 3.74769 14ZM6.85106 6H3.74769C4.7576 4.34 6.36714 3.07 8.3028 2.44C7.67161 3.55 7.18769 4.75 6.85106 6ZM11.0274 17.96C10.1543 16.76 9.47051 15.43 9.01815 14H13.0367C12.5844 15.43 11.9006 16.76 11.0274 17.96ZM13.4891 12H8.56579C8.47112 11.34 8.39748 10.68 8.39748 10C8.39748 9.32 8.47112 8.65 8.56579 8H13.4891C13.5838 8.65 13.6574 9.32 13.6574 10C13.6574 10.68 13.5838 11.34 13.4891 12ZM13.7521 17.56C14.3833 16.45 14.8672 15.25 15.2038 14H18.3072C17.2973 15.65 15.6878 16.93 13.7521 17.56ZM15.6141 12C15.6983 11.34 15.7614 10.68 15.7614 10C15.7614 9.32 15.6983 8.66 15.6141 8H19.1698C19.3382 8.64 19.4433 9.31 19.4433 10C19.4433 10.69 19.3382 11.36 19.1698 12H15.6141Z" fill="#696969"/>
</svg>
